<?xml version="1.0" encoding="UTF-8" standalone="no"?>
<!DOCTYPE svg PUBLIC "-//W3C//DTD SVG 1.1//EN"
 "http://www.w3.org/Graphics/SVG/1.1/DTD/svg11.dtd">
<!-- Generated by graphviz version 2.36.0 (20140111.2315)
 -->
<!-- Title: controllers_diagram Pages: 1 -->
<svg width="1005pt" height="1134pt"
 viewBox="0.00 0.00 1005.00 1134.00" xmlns="http://www.w3.org/2000/svg" xmlns:xlink="http://www.w3.org/1999/xlink">
<g id="graph0" class="graph" transform="scale(1 1) rotate(0) translate(4 1130)">
<title>controllers_diagram</title>
<polygon fill="white" stroke="none" points="-4,4 -4,-1130 1001,-1130 1001,4 -4,4"/>
<!-- _diagram_info -->
<g id="node1" class="node"><title>_diagram_info</title>
<text text-anchor="start" x="616" y="-120.6" font-family="Times,serif" font-size="13.00">Controllers diagram</text>
<text text-anchor="start" x="616" y="-106.6" font-family="Times,serif" font-size="13.00">Date: Apr 01 2015 &#45; 06:49</text>
<text text-anchor="start" x="616" y="-92.6" font-family="Times,serif" font-size="13.00">Migration version: 20150316085153</text>
<text text-anchor="start" x="616" y="-78.6" font-family="Times,serif" font-size="13.00">Generated by RailRoady 1.3.0</text>
<text text-anchor="start" x="616" y="-64.6" font-family="Times,serif" font-size="13.00">http://railroady.prestonlee.com</text>
</g>
<!-- WeathersController -->
<g id="node2" class="node"><title>WeathersController</title>
<path fill="none" stroke="black" d="M221,-437.5C221,-437.5 321,-437.5 321,-437.5 327,-437.5 333,-443.5 333,-449.5 333,-449.5 333,-638.5 333,-638.5 333,-644.5 327,-650.5 321,-650.5 321,-650.5 221,-650.5 221,-650.5 215,-650.5 209,-644.5 209,-638.5 209,-638.5 209,-449.5 209,-449.5 209,-443.5 215,-437.5 221,-437.5"/>
<text text-anchor="middle" x="271" y="-635.3" font-family="Times,serif" font-size="14.00">WeathersController</text>
<polyline fill="none" stroke="black" points="209,-627.5 333,-627.5 "/>
<text text-anchor="start" x="217" y="-612.3" font-family="Times,serif" font-size="14.00">create</text>
<text text-anchor="start" x="217" y="-597.3" font-family="Times,serif" font-size="14.00">destroy</text>
<text text-anchor="start" x="217" y="-582.3" font-family="Times,serif" font-size="14.00">edit</text>
<text text-anchor="start" x="217" y="-567.3" font-family="Times,serif" font-size="14.00">index</text>
<text text-anchor="start" x="217" y="-552.3" font-family="Times,serif" font-size="14.00">new</text>
<text text-anchor="start" x="217" y="-537.3" font-family="Times,serif" font-size="14.00">show</text>
<text text-anchor="start" x="217" y="-522.3" font-family="Times,serif" font-size="14.00">update</text>
<polyline fill="none" stroke="black" points="209,-514.5 333,-514.5 "/>
<polyline fill="none" stroke="black" points="209,-490.5 333,-490.5 "/>
<text text-anchor="start" x="217" y="-475.3" font-family="Times,serif" font-size="14.00">_layout</text>
<text text-anchor="start" x="217" y="-460.3" font-family="Times,serif" font-size="14.00">set_weather</text>
<text text-anchor="start" x="217" y="-445.3" font-family="Times,serif" font-size="14.00">weather_params</text>
</g>
<!-- MeasurementsController -->
<g id="node3" class="node"><title>MeasurementsController</title>
<path fill="none" stroke="black" d="M373,-342.5C373,-342.5 501,-342.5 501,-342.5 507,-342.5 513,-348.5 513,-354.5 513,-354.5 513,-543.5 513,-543.5 513,-549.5 507,-555.5 501,-555.5 501,-555.5 373,-555.5 373,-555.5 367,-555.5 361,-549.5 361,-543.5 361,-543.5 361,-354.5 361,-354.5 361,-348.5 367,-342.5 373,-342.5"/>
<text text-anchor="middle" x="437" y="-540.3" font-family="Times,serif" font-size="14.00">MeasurementsController</text>
<polyline fill="none" stroke="black" points="361,-532.5 513,-532.5 "/>
<text text-anchor="start" x="369" y="-517.3" font-family="Times,serif" font-size="14.00">create</text>
<text text-anchor="start" x="369" y="-502.3" font-family="Times,serif" font-size="14.00">destroy</text>
<text text-anchor="start" x="369" y="-487.3" font-family="Times,serif" font-size="14.00">edit</text>
<text text-anchor="start" x="369" y="-472.3" font-family="Times,serif" font-size="14.00">index</text>
<text text-anchor="start" x="369" y="-457.3" font-family="Times,serif" font-size="14.00">new</text>
<text text-anchor="start" x="369" y="-442.3" font-family="Times,serif" font-size="14.00">show</text>
<text text-anchor="start" x="369" y="-427.3" font-family="Times,serif" font-size="14.00">update</text>
<polyline fill="none" stroke="black" points="361,-419.5 513,-419.5 "/>
<polyline fill="none" stroke="black" points="361,-395.5 513,-395.5 "/>
<text text-anchor="start" x="369" y="-380.3" font-family="Times,serif" font-size="14.00">_layout</text>
<text text-anchor="start" x="369" y="-365.3" font-family="Times,serif" font-size="14.00">measurement_params</text>
<text text-anchor="start" x="369" y="-350.3" font-family="Times,serif" font-size="14.00">set_measurement</text>
</g>
<!-- PlacesController -->
<g id="node4" class="node"><title>PlacesController</title>
<path fill="none" stroke="black" d="M772,-665.5C772,-665.5 855,-665.5 855,-665.5 861,-665.5 867,-671.5 867,-677.5 867,-677.5 867,-881.5 867,-881.5 867,-887.5 861,-893.5 855,-893.5 855,-893.5 772,-893.5 772,-893.5 766,-893.5 760,-887.5 760,-881.5 760,-881.5 760,-677.5 760,-677.5 760,-671.5 766,-665.5 772,-665.5"/>
<text text-anchor="middle" x="813.5" y="-878.3" font-family="Times,serif" font-size="14.00">PlacesController</text>
<polyline fill="none" stroke="black" points="760,-870.5 867,-870.5 "/>
<text text-anchor="start" x="768" y="-855.3" font-family="Times,serif" font-size="14.00">create</text>
<text text-anchor="start" x="768" y="-840.3" font-family="Times,serif" font-size="14.00">destroy</text>
<text text-anchor="start" x="768" y="-825.3" font-family="Times,serif" font-size="14.00">edit</text>
<text text-anchor="start" x="768" y="-810.3" font-family="Times,serif" font-size="14.00">import</text>
<text text-anchor="start" x="768" y="-795.3" font-family="Times,serif" font-size="14.00">index</text>
<text text-anchor="start" x="768" y="-780.3" font-family="Times,serif" font-size="14.00">new</text>
<text text-anchor="start" x="768" y="-765.3" font-family="Times,serif" font-size="14.00">show</text>
<text text-anchor="start" x="768" y="-750.3" font-family="Times,serif" font-size="14.00">update</text>
<polyline fill="none" stroke="black" points="760,-742.5 867,-742.5 "/>
<polyline fill="none" stroke="black" points="760,-718.5 867,-718.5 "/>
<text text-anchor="start" x="768" y="-703.3" font-family="Times,serif" font-size="14.00">_layout</text>
<text text-anchor="start" x="768" y="-688.3" font-family="Times,serif" font-size="14.00">place_params</text>
<text text-anchor="start" x="768" y="-673.3" font-family="Times,serif" font-size="14.00">set_place</text>
</g>
<!-- StatusesController -->
<g id="node5" class="node"><title>StatusesController</title>
<path fill="none" stroke="black" d="M316,-95.5C316,-95.5 408,-95.5 408,-95.5 414,-95.5 420,-101.5 420,-107.5 420,-107.5 420,-296.5 420,-296.5 420,-302.5 414,-308.5 408,-308.5 408,-308.5 316,-308.5 316,-308.5 310,-308.5 304,-302.5 304,-296.5 304,-296.5 304,-107.5 304,-107.5 304,-101.5 310,-95.5 316,-95.5"/>
<text text-anchor="middle" x="362" y="-293.3" font-family="Times,serif" font-size="14.00">StatusesController</text>
<polyline fill="none" stroke="black" points="304,-285.5 420,-285.5 "/>
<text text-anchor="start" x="312" y="-270.3" font-family="Times,serif" font-size="14.00">create</text>
<text text-anchor="start" x="312" y="-255.3" font-family="Times,serif" font-size="14.00">destroy</text>
<text text-anchor="start" x="312" y="-240.3" font-family="Times,serif" font-size="14.00">edit</text>
<text text-anchor="start" x="312" y="-225.3" font-family="Times,serif" font-size="14.00">index</text>
<text text-anchor="start" x="312" y="-210.3" font-family="Times,serif" font-size="14.00">new</text>
<text text-anchor="start" x="312" y="-195.3" font-family="Times,serif" font-size="14.00">show</text>
<text text-anchor="start" x="312" y="-180.3" font-family="Times,serif" font-size="14.00">update</text>
<polyline fill="none" stroke="black" points="304,-172.5 420,-172.5 "/>
<polyline fill="none" stroke="black" points="304,-148.5 420,-148.5 "/>
<text text-anchor="start" x="312" y="-133.3" font-family="Times,serif" font-size="14.00">_layout</text>
<text text-anchor="start" x="312" y="-118.3" font-family="Times,serif" font-size="14.00">set_status</text>
<text text-anchor="start" x="312" y="-103.3" font-family="Times,serif" font-size="14.00">status_params</text>
</g>
<!-- TypesController -->
<g id="node6" class="node"><title>TypesController</title>
<path fill="none" stroke="black" d="M88,-456.5C88,-456.5 169,-456.5 169,-456.5 175,-456.5 181,-462.5 181,-468.5 181,-468.5 181,-657.5 181,-657.5 181,-663.5 175,-669.5 169,-669.5 169,-669.5 88,-669.5 88,-669.5 82,-669.5 76,-663.5 76,-657.5 76,-657.5 76,-468.5 76,-468.5 76,-462.5 82,-456.5 88,-456.5"/>
<text text-anchor="middle" x="128.5" y="-654.3" font-family="Times,serif" font-size="14.00">TypesController</text>
<polyline fill="none" stroke="black" points="76,-646.5 181,-646.5 "/>
<text text-anchor="start" x="84" y="-631.3" font-family="Times,serif" font-size="14.00">create</text>
<text text-anchor="start" x="84" y="-616.3" font-family="Times,serif" font-size="14.00">destroy</text>
<text text-anchor="start" x="84" y="-601.3" font-family="Times,serif" font-size="14.00">edit</text>
<text text-anchor="start" x="84" y="-586.3" font-family="Times,serif" font-size="14.00">index</text>
<text text-anchor="start" x="84" y="-571.3" font-family="Times,serif" font-size="14.00">new</text>
<text text-anchor="start" x="84" y="-556.3" font-family="Times,serif" font-size="14.00">show</text>
<text text-anchor="start" x="84" y="-541.3" font-family="Times,serif" font-size="14.00">update</text>
<polyline fill="none" stroke="black" points="76,-533.5 181,-533.5 "/>
<polyline fill="none" stroke="black" points="76,-509.5 181,-509.5 "/>
<text text-anchor="start" x="84" y="-494.3" font-family="Times,serif" font-size="14.00">_layout</text>
<text text-anchor="start" x="84" y="-479.3" font-family="Times,serif" font-size="14.00">set_type</text>
<text text-anchor="start" x="84" y="-464.3" font-family="Times,serif" font-size="14.00">type_params</text>
</g>
<!-- MenuController -->
<g id="node7" class="node"><title>MenuController</title>
<path fill="none" stroke="black" d="M905,-247.5C905,-247.5 985,-247.5 985,-247.5 991,-247.5 997,-253.5 997,-259.5 997,-259.5 997,-328.5 997,-328.5 997,-334.5 991,-340.5 985,-340.5 985,-340.5 905,-340.5 905,-340.5 899,-340.5 893,-334.5 893,-328.5 893,-328.5 893,-259.5 893,-259.5 893,-253.5 899,-247.5 905,-247.5"/>
<text text-anchor="middle" x="945" y="-325.3" font-family="Times,serif" font-size="14.00">MenuController</text>
<polyline fill="none" stroke="black" points="893,-317.5 997,-317.5 "/>
<text text-anchor="start" x="901" y="-302.3" font-family="Times,serif" font-size="14.00">show</text>
<polyline fill="none" stroke="black" points="893,-294.5 997,-294.5 "/>
<polyline fill="none" stroke="black" points="893,-270.5 997,-270.5 "/>
<text text-anchor="start" x="901" y="-255.3" font-family="Times,serif" font-size="14.00">_layout</text>
</g>
<!-- ChecksController -->
<g id="node8" class="node"><title>ChecksController</title>
<path fill="none" stroke="black" d="M468,-95.5C468,-95.5 556,-95.5 556,-95.5 562,-95.5 568,-101.5 568,-107.5 568,-107.5 568,-296.5 568,-296.5 568,-302.5 562,-308.5 556,-308.5 556,-308.5 468,-308.5 468,-308.5 462,-308.5 456,-302.5 456,-296.5 456,-296.5 456,-107.5 456,-107.5 456,-101.5 462,-95.5 468,-95.5"/>
<text text-anchor="middle" x="512" y="-293.3" font-family="Times,serif" font-size="14.00">ChecksController</text>
<polyline fill="none" stroke="black" points="456,-285.5 568,-285.5 "/>
<text text-anchor="start" x="464" y="-270.3" font-family="Times,serif" font-size="14.00">create</text>
<text text-anchor="start" x="464" y="-255.3" font-family="Times,serif" font-size="14.00">destroy</text>
<text text-anchor="start" x="464" y="-240.3" font-family="Times,serif" font-size="14.00">edit</text>
<text text-anchor="start" x="464" y="-225.3" font-family="Times,serif" font-size="14.00">index</text>
<text text-anchor="start" x="464" y="-210.3" font-family="Times,serif" font-size="14.00">new</text>
<text text-anchor="start" x="464" y="-195.3" font-family="Times,serif" font-size="14.00">show</text>
<text text-anchor="start" x="464" y="-180.3" font-family="Times,serif" font-size="14.00">update</text>
<polyline fill="none" stroke="black" points="456,-172.5 568,-172.5 "/>
<polyline fill="none" stroke="black" points="456,-148.5 568,-148.5 "/>
<text text-anchor="start" x="464" y="-133.3" font-family="Times,serif" font-size="14.00">_layout</text>
<text text-anchor="start" x="464" y="-118.3" font-family="Times,serif" font-size="14.00">check_params</text>
<text text-anchor="start" x="464" y="-103.3" font-family="Times,serif" font-size="14.00">set_check</text>
</g>
<!-- InspectionsController -->
<g id="node9" class="node"><title>InspectionsController</title>
<path fill="none" stroke="black" d="M563,-342.5C563,-342.5 673,-342.5 673,-342.5 679,-342.5 685,-348.5 685,-354.5 685,-354.5 685,-573.5 685,-573.5 685,-579.5 679,-585.5 673,-585.5 673,-585.5 563,-585.5 563,-585.5 557,-585.5 551,-579.5 551,-573.5 551,-573.5 551,-354.5 551,-354.5 551,-348.5 557,-342.5 563,-342.5"/>
<text text-anchor="middle" x="618" y="-570.3" font-family="Times,serif" font-size="14.00">InspectionsController</text>
<polyline fill="none" stroke="black" points="551,-562.5 685,-562.5 "/>
<text text-anchor="start" x="559" y="-547.3" font-family="Times,serif" font-size="14.00">create</text>
<text text-anchor="start" x="559" y="-532.3" font-family="Times,serif" font-size="14.00">createInspections</text>
<text text-anchor="start" x="559" y="-517.3" font-family="Times,serif" font-size="14.00">destroy</text>
<text text-anchor="start" x="559" y="-502.3" font-family="Times,serif" font-size="14.00">do_inspection</text>
<text text-anchor="start" x="559" y="-487.3" font-family="Times,serif" font-size="14.00">edit</text>
<text text-anchor="start" x="559" y="-472.3" font-family="Times,serif" font-size="14.00">index</text>
<text text-anchor="start" x="559" y="-457.3" font-family="Times,serif" font-size="14.00">new</text>
<text text-anchor="start" x="559" y="-442.3" font-family="Times,serif" font-size="14.00">show</text>
<text text-anchor="start" x="559" y="-427.3" font-family="Times,serif" font-size="14.00">update</text>
<polyline fill="none" stroke="black" points="551,-419.5 685,-419.5 "/>
<polyline fill="none" stroke="black" points="551,-395.5 685,-395.5 "/>
<text text-anchor="start" x="559" y="-380.3" font-family="Times,serif" font-size="14.00">_layout</text>
<text text-anchor="start" x="559" y="-365.3" font-family="Times,serif" font-size="14.00">inspection_params</text>
<text text-anchor="start" x="559" y="-350.3" font-family="Times,serif" font-size="14.00">set_inspection</text>
</g>
<!-- WorkersController -->
<g id="node10" class="node"><title>WorkersController</title>
<path fill="none" stroke="black" d="M164,-171.5C164,-171.5 259,-171.5 259,-171.5 265,-171.5 271,-177.5 271,-183.5 271,-183.5 271,-387.5 271,-387.5 271,-393.5 265,-399.5 259,-399.5 259,-399.5 164,-399.5 164,-399.5 158,-399.5 152,-393.5 152,-387.5 152,-387.5 152,-183.5 152,-183.5 152,-177.5 158,-171.5 164,-171.5"/>
<text text-anchor="middle" x="211.5" y="-384.3" font-family="Times,serif" font-size="14.00">WorkersController</text>
<polyline fill="none" stroke="black" points="152,-376.5 271,-376.5 "/>
<text text-anchor="start" x="160" y="-361.3" font-family="Times,serif" font-size="14.00">create</text>
<text text-anchor="start" x="160" y="-346.3" font-family="Times,serif" font-size="14.00">destroy</text>
<text text-anchor="start" x="160" y="-331.3" font-family="Times,serif" font-size="14.00">edit</text>
<text text-anchor="start" x="160" y="-316.3" font-family="Times,serif" font-size="14.00">import</text>
<text text-anchor="start" x="160" y="-301.3" font-family="Times,serif" font-size="14.00">index</text>
<text text-anchor="start" x="160" y="-286.3" font-family="Times,serif" font-size="14.00">new</text>
<text text-anchor="start" x="160" y="-271.3" font-family="Times,serif" font-size="14.00">show</text>
<text text-anchor="start" x="160" y="-256.3" font-family="Times,serif" font-size="14.00">update</text>
<polyline fill="none" stroke="black" points="152,-248.5 271,-248.5 "/>
<polyline fill="none" stroke="black" points="152,-224.5 271,-224.5 "/>
<text text-anchor="start" x="160" y="-209.3" font-family="Times,serif" font-size="14.00">_layout</text>
<text text-anchor="start" x="160" y="-194.3" font-family="Times,serif" font-size="14.00">set_worker</text>
<text text-anchor="start" x="160" y="-179.3" font-family="Times,serif" font-size="14.00">worker_params</text>
</g>
<!-- ResultsController -->
<g id="node11" class="node"><title>ResultsController</title>
<path fill="none" stroke="black" d="M468,-836.5C468,-836.5 556,-836.5 556,-836.5 562,-836.5 568,-842.5 568,-848.5 568,-848.5 568,-1037.5 568,-1037.5 568,-1043.5 562,-1049.5 556,-1049.5 556,-1049.5 468,-1049.5 468,-1049.5 462,-1049.5 456,-1043.5 456,-1037.5 456,-1037.5 456,-848.5 456,-848.5 456,-842.5 462,-836.5 468,-836.5"/>
<text text-anchor="middle" x="512" y="-1034.3" font-family="Times,serif" font-size="14.00">ResultsController</text>
<polyline fill="none" stroke="black" points="456,-1026.5 568,-1026.5 "/>
<text text-anchor="start" x="464" y="-1011.3" font-family="Times,serif" font-size="14.00">create</text>
<text text-anchor="start" x="464" y="-996.3" font-family="Times,serif" font-size="14.00">destroy</text>
<text text-anchor="start" x="464" y="-981.3" font-family="Times,serif" font-size="14.00">edit</text>
<text text-anchor="start" x="464" y="-966.3" font-family="Times,serif" font-size="14.00">index</text>
<text text-anchor="start" x="464" y="-951.3" font-family="Times,serif" font-size="14.00">new</text>
<text text-anchor="start" x="464" y="-936.3" font-family="Times,serif" font-size="14.00">show</text>
<text text-anchor="start" x="464" y="-921.3" font-family="Times,serif" font-size="14.00">update</text>
<polyline fill="none" stroke="black" points="456,-913.5 568,-913.5 "/>
<polyline fill="none" stroke="black" points="456,-889.5 568,-889.5 "/>
<text text-anchor="start" x="464" y="-874.3" font-family="Times,serif" font-size="14.00">_layout</text>
<text text-anchor="start" x="464" y="-859.3" font-family="Times,serif" font-size="14.00">result_params</text>
<text text-anchor="start" x="464" y="-844.3" font-family="Times,serif" font-size="14.00">set_result</text>
</g>
<!-- CheckresultsController -->
<g id="node12" class="node"><title>CheckresultsController</title>
<path fill="none" stroke="black" d="M392,-589.5C392,-589.5 510,-589.5 510,-589.5 516,-589.5 522,-595.5 522,-601.5 522,-601.5 522,-790.5 522,-790.5 522,-796.5 516,-802.5 510,-802.5 510,-802.5 392,-802.5 392,-802.5 386,-802.5 380,-796.5 380,-790.5 380,-790.5 380,-601.5 380,-601.5 380,-595.5 386,-589.5 392,-589.5"/>
<text text-anchor="middle" x="451" y="-787.3" font-family="Times,serif" font-size="14.00">CheckresultsController</text>
<polyline fill="none" stroke="black" points="380,-779.5 522,-779.5 "/>
<text text-anchor="start" x="388" y="-764.3" font-family="Times,serif" font-size="14.00">create</text>
<text text-anchor="start" x="388" y="-749.3" font-family="Times,serif" font-size="14.00">destroy</text>
<text text-anchor="start" x="388" y="-734.3" font-family="Times,serif" font-size="14.00">edit</text>
<text text-anchor="start" x="388" y="-719.3" font-family="Times,serif" font-size="14.00">index</text>
<text text-anchor="start" x="388" y="-704.3" font-family="Times,serif" font-size="14.00">new</text>
<text text-anchor="start" x="388" y="-689.3" font-family="Times,serif" font-size="14.00">show</text>
<text text-anchor="start" x="388" y="-674.3" font-family="Times,serif" font-size="14.00">update</text>
<polyline fill="none" stroke="black" points="380,-666.5 522,-666.5 "/>
<polyline fill="none" stroke="black" points="380,-642.5 522,-642.5 "/>
<text text-anchor="start" x="388" y="-627.3" font-family="Times,serif" font-size="14.00">_layout</text>
<text text-anchor="start" x="388" y="-612.3" font-family="Times,serif" font-size="14.00">checkresult_params</text>
<text text-anchor="start" x="388" y="-597.3" font-family="Times,serif" font-size="14.00">set_checkresult</text>
</g>
<!-- InfomsgsController -->
<g id="node13" class="node"><title>InfomsgsController</title>
<path fill="none" stroke="black" d="M620,-627.5C620,-627.5 719,-627.5 719,-627.5 725,-627.5 731,-633.5 731,-639.5 731,-639.5 731,-858.5 731,-858.5 731,-864.5 725,-870.5 719,-870.5 719,-870.5 620,-870.5 620,-870.5 614,-870.5 608,-864.5 608,-858.5 608,-858.5 608,-639.5 608,-639.5 608,-633.5 614,-627.5 620,-627.5"/>
<text text-anchor="middle" x="669.5" y="-855.3" font-family="Times,serif" font-size="14.00">InfomsgsController</text>
<polyline fill="none" stroke="black" points="608,-847.5 731,-847.5 "/>
<text text-anchor="start" x="616" y="-832.3" font-family="Times,serif" font-size="14.00">create</text>
<text text-anchor="start" x="616" y="-817.3" font-family="Times,serif" font-size="14.00">deleteByAdmin</text>
<text text-anchor="start" x="616" y="-802.3" font-family="Times,serif" font-size="14.00">destroy</text>
<text text-anchor="start" x="616" y="-787.3" font-family="Times,serif" font-size="14.00">edit</text>
<text text-anchor="start" x="616" y="-772.3" font-family="Times,serif" font-size="14.00">index</text>
<text text-anchor="start" x="616" y="-757.3" font-family="Times,serif" font-size="14.00">new</text>
<text text-anchor="start" x="616" y="-742.3" font-family="Times,serif" font-size="14.00">show</text>
<text text-anchor="start" x="616" y="-727.3" font-family="Times,serif" font-size="14.00">update</text>
<polyline fill="none" stroke="black" points="608,-719.5 731,-719.5 "/>
<polyline fill="none" stroke="black" points="608,-695.5 731,-695.5 "/>
<text text-anchor="start" x="616" y="-680.3" font-family="Times,serif" font-size="14.00">_layout</text>
<text text-anchor="start" x="616" y="-665.3" font-family="Times,serif" font-size="14.00">admin?</text>
<text text-anchor="start" x="616" y="-650.3" font-family="Times,serif" font-size="14.00">infomsg_params</text>
<text text-anchor="start" x="616" y="-635.3" font-family="Times,serif" font-size="14.00">set_infomsg</text>
</g>
<!-- NotesController -->
<g id="node14" class="node"><title>NotesController</title>
<path fill="none" stroke="black" d="M88,-817.5C88,-817.5 168,-817.5 168,-817.5 174,-817.5 180,-823.5 180,-829.5 180,-829.5 180,-1018.5 180,-1018.5 180,-1024.5 174,-1030.5 168,-1030.5 168,-1030.5 88,-1030.5 88,-1030.5 82,-1030.5 76,-1024.5 76,-1018.5 76,-1018.5 76,-829.5 76,-829.5 76,-823.5 82,-817.5 88,-817.5"/>
<text text-anchor="middle" x="128" y="-1015.3" font-family="Times,serif" font-size="14.00">NotesController</text>
<polyline fill="none" stroke="black" points="76,-1007.5 180,-1007.5 "/>
<text text-anchor="start" x="84" y="-992.3" font-family="Times,serif" font-size="14.00">create</text>
<text text-anchor="start" x="84" y="-977.3" font-family="Times,serif" font-size="14.00">destroy</text>
<text text-anchor="start" x="84" y="-962.3" font-family="Times,serif" font-size="14.00">edit</text>
<text text-anchor="start" x="84" y="-947.3" font-family="Times,serif" font-size="14.00">index</text>
<text text-anchor="start" x="84" y="-932.3" font-family="Times,serif" font-size="14.00">new</text>
<text text-anchor="start" x="84" y="-917.3" font-family="Times,serif" font-size="14.00">show</text>
<text text-anchor="start" x="84" y="-902.3" font-family="Times,serif" font-size="14.00">update</text>
<polyline fill="none" stroke="black" points="76,-894.5 180,-894.5 "/>
<polyline fill="none" stroke="black" points="76,-870.5 180,-870.5 "/>
<text text-anchor="start" x="84" y="-855.3" font-family="Times,serif" font-size="14.00">_layout</text>
<text text-anchor="start" x="84" y="-840.3" font-family="Times,serif" font-size="14.00">note_params</text>
<text text-anchor="start" x="84" y="-825.3" font-family="Times,serif" font-size="14.00">set_note</text>
</g>
<!-- TopicsController -->
<g id="node15" class="node"><title>TopicsController</title>
<path fill="none" stroke="black" d="M12,-209.5C12,-209.5 97,-209.5 97,-209.5 103,-209.5 109,-215.5 109,-221.5 109,-221.5 109,-410.5 109,-410.5 109,-416.5 103,-422.5 97,-422.5 97,-422.5 12,-422.5 12,-422.5 6,-422.5 -5.68434e-14,-416.5 -5.68434e-14,-410.5 -5.68434e-14,-410.5 -5.68434e-14,-221.5 -5.68434e-14,-221.5 -5.68434e-14,-215.5 6,-209.5 12,-209.5"/>
<text text-anchor="middle" x="54.5" y="-407.3" font-family="Times,serif" font-size="14.00">TopicsController</text>
<polyline fill="none" stroke="black" points="-5.68434e-14,-399.5 109,-399.5 "/>
<text text-anchor="start" x="8" y="-384.3" font-family="Times,serif" font-size="14.00">create</text>
<text text-anchor="start" x="8" y="-369.3" font-family="Times,serif" font-size="14.00">destroy</text>
<text text-anchor="start" x="8" y="-354.3" font-family="Times,serif" font-size="14.00">edit</text>
<text text-anchor="start" x="8" y="-339.3" font-family="Times,serif" font-size="14.00">index</text>
<text text-anchor="start" x="8" y="-324.3" font-family="Times,serif" font-size="14.00">new</text>
<text text-anchor="start" x="8" y="-309.3" font-family="Times,serif" font-size="14.00">show</text>
<text text-anchor="start" x="8" y="-294.3" font-family="Times,serif" font-size="14.00">update</text>
<polyline fill="none" stroke="black" points="-5.68434e-14,-286.5 109,-286.5 "/>
<polyline fill="none" stroke="black" points="-5.68434e-14,-262.5 109,-262.5 "/>
<text text-anchor="start" x="8" y="-247.3" font-family="Times,serif" font-size="14.00">_layout</text>
<text text-anchor="start" x="8" y="-232.3" font-family="Times,serif" font-size="14.00">set_topic</text>
<text text-anchor="start" x="8" y="-217.3" font-family="Times,serif" font-size="14.00">topic_params</text>
</g>
<!-- FlagsController -->
<g id="node16" class="node"><title>FlagsController</title>
<path fill="none" stroke="black" d="M905,-0.5C905,-0.5 982,-0.5 982,-0.5 988,-0.5 994,-6.5 994,-12.5 994,-12.5 994,-201.5 994,-201.5 994,-207.5 988,-213.5 982,-213.5 982,-213.5 905,-213.5 905,-213.5 899,-213.5 893,-207.5 893,-201.5 893,-201.5 893,-12.5 893,-12.5 893,-6.5 899,-0.5 905,-0.5"/>
<text text-anchor="middle" x="943.5" y="-198.3" font-family="Times,serif" font-size="14.00">FlagsController</text>
<polyline fill="none" stroke="black" points="893,-190.5 994,-190.5 "/>
<text text-anchor="start" x="901" y="-175.3" font-family="Times,serif" font-size="14.00">create</text>
<text text-anchor="start" x="901" y="-160.3" font-family="Times,serif" font-size="14.00">destroy</text>
<text text-anchor="start" x="901" y="-145.3" font-family="Times,serif" font-size="14.00">edit</text>
<text text-anchor="start" x="901" y="-130.3" font-family="Times,serif" font-size="14.00">index</text>
<text text-anchor="start" x="901" y="-115.3" font-family="Times,serif" font-size="14.00">new</text>
<text text-anchor="start" x="901" y="-100.3" font-family="Times,serif" font-size="14.00">show</text>
<text text-anchor="start" x="901" y="-85.3" font-family="Times,serif" font-size="14.00">update</text>
<polyline fill="none" stroke="black" points="893,-77.5 994,-77.5 "/>
<polyline fill="none" stroke="black" points="893,-53.5 994,-53.5 "/>
<text text-anchor="start" x="901" y="-38.3" font-family="Times,serif" font-size="14.00">_layout</text>
<text text-anchor="start" x="901" y="-23.3" font-family="Times,serif" font-size="14.00">flag_params</text>
<text text-anchor="start" x="901" y="-8.3" font-family="Times,serif" font-size="14.00">set_flag</text>
</g>
<!-- EquipmentController -->
<g id="node17" class="node"><title>EquipmentController</title>
<path fill="none" stroke="black" d="M221,-684.5C221,-684.5 329,-684.5 329,-684.5 335,-684.5 341,-690.5 341,-696.5 341,-696.5 341,-915.5 341,-915.5 341,-921.5 335,-927.5 329,-927.5 329,-927.5 221,-927.5 221,-927.5 215,-927.5 209,-921.5 209,-915.5 209,-915.5 209,-696.5 209,-696.5 209,-690.5 215,-684.5 221,-684.5"/>
<text text-anchor="middle" x="275" y="-912.3" font-family="Times,serif" font-size="14.00">EquipmentController</text>
<polyline fill="none" stroke="black" points="209,-904.5 341,-904.5 "/>
<text text-anchor="start" x="217" y="-889.3" font-family="Times,serif" font-size="14.00">create</text>
<text text-anchor="start" x="217" y="-874.3" font-family="Times,serif" font-size="14.00">destroy</text>
<text text-anchor="start" x="217" y="-859.3" font-family="Times,serif" font-size="14.00">edit</text>
<text text-anchor="start" x="217" y="-844.3" font-family="Times,serif" font-size="14.00">import</text>
<text text-anchor="start" x="217" y="-829.3" font-family="Times,serif" font-size="14.00">index</text>
<text text-anchor="start" x="217" y="-814.3" font-family="Times,serif" font-size="14.00">new</text>
<text text-anchor="start" x="217" y="-799.3" font-family="Times,serif" font-size="14.00">noInspectionList</text>
<text text-anchor="start" x="217" y="-784.3" font-family="Times,serif" font-size="14.00">show</text>
<text text-anchor="start" x="217" y="-769.3" font-family="Times,serif" font-size="14.00">update</text>
<polyline fill="none" stroke="black" points="209,-761.5 341,-761.5 "/>
<polyline fill="none" stroke="black" points="209,-737.5 341,-737.5 "/>
<text text-anchor="start" x="217" y="-722.3" font-family="Times,serif" font-size="14.00">_layout</text>
<text text-anchor="start" x="217" y="-707.3" font-family="Times,serif" font-size="14.00">equipment_params</text>
<text text-anchor="start" x="217" y="-692.3" font-family="Times,serif" font-size="14.00">set_equipment</text>
</g>
<!-- KirokusController -->
<g id="node18" class="node"><title>KirokusController</title>
<path fill="none" stroke="black" d="M620,-912.5C620,-912.5 712,-912.5 712,-912.5 718,-912.5 724,-918.5 724,-924.5 724,-924.5 724,-1113.5 724,-1113.5 724,-1119.5 718,-1125.5 712,-1125.5 712,-1125.5 620,-1125.5 620,-1125.5 614,-1125.5 608,-1119.5 608,-1113.5 608,-1113.5 608,-924.5 608,-924.5 608,-918.5 614,-912.5 620,-912.5"/>
<text text-anchor="middle" x="666" y="-1110.3" font-family="Times,serif" font-size="14.00">KirokusController</text>
<polyline fill="none" stroke="black" points="608,-1102.5 724,-1102.5 "/>
<text text-anchor="start" x="616" y="-1087.3" font-family="Times,serif" font-size="14.00">create</text>
<text text-anchor="start" x="616" y="-1072.3" font-family="Times,serif" font-size="14.00">destroy</text>
<text text-anchor="start" x="616" y="-1057.3" font-family="Times,serif" font-size="14.00">edit</text>
<text text-anchor="start" x="616" y="-1042.3" font-family="Times,serif" font-size="14.00">index</text>
<text text-anchor="start" x="616" y="-1027.3" font-family="Times,serif" font-size="14.00">new</text>
<text text-anchor="start" x="616" y="-1012.3" font-family="Times,serif" font-size="14.00">show</text>
<text text-anchor="start" x="616" y="-997.3" font-family="Times,serif" font-size="14.00">update</text>
<polyline fill="none" stroke="black" points="608,-989.5 724,-989.5 "/>
<polyline fill="none" stroke="black" points="608,-965.5 724,-965.5 "/>
<text text-anchor="start" x="616" y="-950.3" font-family="Times,serif" font-size="14.00">_layout</text>
<text text-anchor="start" x="616" y="-935.3" font-family="Times,serif" font-size="14.00">kiroku_params</text>
<text text-anchor="start" x="616" y="-920.3" font-family="Times,serif" font-size="14.00">set_kiroku</text>
</g>
<!-- CommentsController -->
<g id="node19" class="node"><title>CommentsController</title>
<path fill="none" stroke="black" d="M734,-171.5C734,-171.5 842,-171.5 842,-171.5 848,-171.5 854,-177.5 854,-183.5 854,-183.5 854,-372.5 854,-372.5 854,-378.5 848,-384.5 842,-384.5 842,-384.5 734,-384.5 734,-384.5 728,-384.5 722,-378.5 722,-372.5 722,-372.5 722,-183.5 722,-183.5 722,-177.5 728,-171.5 734,-171.5"/>
<text text-anchor="middle" x="788" y="-369.3" font-family="Times,serif" font-size="14.00">CommentsController</text>
<polyline fill="none" stroke="black" points="722,-361.5 854,-361.5 "/>
<text text-anchor="start" x="730" y="-346.3" font-family="Times,serif" font-size="14.00">create</text>
<text text-anchor="start" x="730" y="-331.3" font-family="Times,serif" font-size="14.00">destroy</text>
<text text-anchor="start" x="730" y="-316.3" font-family="Times,serif" font-size="14.00">edit</text>
<text text-anchor="start" x="730" y="-301.3" font-family="Times,serif" font-size="14.00">index</text>
<text text-anchor="start" x="730" y="-286.3" font-family="Times,serif" font-size="14.00">new</text>
<text text-anchor="start" x="730" y="-271.3" font-family="Times,serif" font-size="14.00">show</text>
<text text-anchor="start" x="730" y="-256.3" font-family="Times,serif" font-size="14.00">update</text>
<polyline fill="none" stroke="black" points="722,-248.5 854,-248.5 "/>
<polyline fill="none" stroke="black" points="722,-224.5 854,-224.5 "/>
<text text-anchor="start" x="730" y="-209.3" font-family="Times,serif" font-size="14.00">_layout</text>
<text text-anchor="start" x="730" y="-194.3" font-family="Times,serif" font-size="14.00">comment_params</text>
<text text-anchor="start" x="730" y="-179.3" font-family="Times,serif" font-size="14.00">set_comment</text>
</g>
<!-- DivisionsController -->
<g id="node20" class="node"><title>DivisionsController</title>
<path fill="none" stroke="black" d="M772,-418.5C772,-418.5 872,-418.5 872,-418.5 878,-418.5 884,-424.5 884,-430.5 884,-430.5 884,-619.5 884,-619.5 884,-625.5 878,-631.5 872,-631.5 872,-631.5 772,-631.5 772,-631.5 766,-631.5 760,-625.5 760,-619.5 760,-619.5 760,-430.5 760,-430.5 760,-424.5 766,-418.5 772,-418.5"/>
<text text-anchor="middle" x="822" y="-616.3" font-family="Times,serif" font-size="14.00">DivisionsController</text>
<polyline fill="none" stroke="black" points="760,-608.5 884,-608.5 "/>
<text text-anchor="start" x="768" y="-593.3" font-family="Times,serif" font-size="14.00">create</text>
<text text-anchor="start" x="768" y="-578.3" font-family="Times,serif" font-size="14.00">destroy</text>
<text text-anchor="start" x="768" y="-563.3" font-family="Times,serif" font-size="14.00">edit</text>
<text text-anchor="start" x="768" y="-548.3" font-family="Times,serif" font-size="14.00">index</text>
<text text-anchor="start" x="768" y="-533.3" font-family="Times,serif" font-size="14.00">new</text>
<text text-anchor="start" x="768" y="-518.3" font-family="Times,serif" font-size="14.00">show</text>
<text text-anchor="start" x="768" y="-503.3" font-family="Times,serif" font-size="14.00">update</text>
<polyline fill="none" stroke="black" points="760,-495.5 884,-495.5 "/>
<polyline fill="none" stroke="black" points="760,-471.5 884,-471.5 "/>
<text text-anchor="start" x="768" y="-456.3" font-family="Times,serif" font-size="14.00">_layout</text>
<text text-anchor="start" x="768" y="-441.3" font-family="Times,serif" font-size="14.00">division_params</text>
<text text-anchor="start" x="768" y="-426.3" font-family="Times,serif" font-size="14.00">set_division</text>
</g>
<!-- ApplicationController -->
<g id="node21" class="node"><title>ApplicationController</title>
<path fill="none" stroke="black" d="M31,-38.5C31,-38.5 143,-38.5 143,-38.5 149,-38.5 155,-44.5 155,-50.5 155,-50.5 155,-120.5 155,-120.5 155,-126.5 149,-132.5 143,-132.5 143,-132.5 31,-132.5 31,-132.5 25,-132.5 19,-126.5 19,-120.5 19,-120.5 19,-50.5 19,-50.5 19,-44.5 25,-38.5 31,-38.5"/>
<text text-anchor="middle" x="87" y="-117.3" font-family="Times,serif" font-size="14.00">ApplicationController</text>
<polyline fill="none" stroke="black" points="19,-109.5 155,-109.5 "/>
<polyline fill="none" stroke="black" points="19,-85.5 155,-85.5 "/>
<polyline fill="none" stroke="black" points="19,-61.5 155,-61.5 "/>
<text text-anchor="start" x="27" y="-46.3" font-family="Times,serif" font-size="14.00">_layout</text>
</g>
</g>
</svg>
