<?xml version="1.0" encoding="UTF-8" standalone="no"?>
<!DOCTYPE svg PUBLIC "-//W3C//DTD SVG 1.1//EN"
 "http://www.w3.org/Graphics/SVG/1.1/DTD/svg11.dtd">
<!-- Generated by graphviz version 2.36.0 (20140111.2315)
 -->
<!-- Title: models_diagram Pages: 1 -->
<svg width="2016pt" height="712pt"
 viewBox="0.00 0.00 2016.00 712.00" xmlns="http://www.w3.org/2000/svg" xmlns:xlink="http://www.w3.org/1999/xlink">
<g id="graph0" class="graph" transform="scale(1 1) rotate(0) translate(4 708)">
<title>models_diagram</title>
<polygon fill="white" stroke="none" points="-4,4 -4,-708 2012,-708 2012,4 -4,4"/>
<!-- _diagram_info -->
<g id="node1" class="node"><title>_diagram_info</title>
<text text-anchor="start" x="7" y="-659.6" font-family="Times,serif" font-size="13.00">Models diagram</text>
<text text-anchor="start" x="7" y="-645.6" font-family="Times,serif" font-size="13.00">Date: Apr 01 2015 &#45; 06:49</text>
<text text-anchor="start" x="7" y="-631.6" font-family="Times,serif" font-size="13.00">Migration version: 20150316085153</text>
<text text-anchor="start" x="7" y="-617.6" font-family="Times,serif" font-size="13.00">Generated by RailRoady 1.3.0</text>
<text text-anchor="start" x="7" y="-603.6" font-family="Times,serif" font-size="13.00">http://railroady.prestonlee.com</text>
</g>
<!-- Topic -->
<g id="node2" class="node"><title>Topic</title>
<path fill="none" stroke="black" d="M243.5,-567C243.5,-567 350.5,-567 350.5,-567 356.5,-567 362.5,-573 362.5,-579 362.5,-579 362.5,-691 362.5,-691 362.5,-697 356.5,-703 350.5,-703 350.5,-703 243.5,-703 243.5,-703 237.5,-703 231.5,-697 231.5,-691 231.5,-691 231.5,-579 231.5,-579 231.5,-573 237.5,-567 243.5,-567"/>
<text text-anchor="middle" x="297" y="-687.8" font-family="Times,serif" font-size="14.00">Topic</text>
<polyline fill="none" stroke="black" points="231.5,-680 362.5,-680 "/>
<text text-anchor="start" x="239.5" y="-664.8" font-family="Times,serif" font-size="14.00">id :integer</text>
<text text-anchor="start" x="239.5" y="-649.8" font-family="Times,serif" font-size="14.00">title :string</text>
<text text-anchor="start" x="239.5" y="-634.8" font-family="Times,serif" font-size="14.00">name :string</text>
<text text-anchor="start" x="239.5" y="-619.8" font-family="Times,serif" font-size="14.00">description :text</text>
<text text-anchor="start" x="239.5" y="-604.8" font-family="Times,serif" font-size="14.00">flag_id :integer</text>
<text text-anchor="start" x="239.5" y="-589.8" font-family="Times,serif" font-size="14.00">created_at :datetime</text>
<text text-anchor="start" x="239.5" y="-574.8" font-family="Times,serif" font-size="14.00">updated_at :datetime</text>
</g>
<!-- Comment -->
<g id="node12" class="node"><title>Comment</title>
<path fill="none" stroke="black" d="M243.5,-385.5C243.5,-385.5 350.5,-385.5 350.5,-385.5 356.5,-385.5 362.5,-391.5 362.5,-397.5 362.5,-397.5 362.5,-494.5 362.5,-494.5 362.5,-500.5 356.5,-506.5 350.5,-506.5 350.5,-506.5 243.5,-506.5 243.5,-506.5 237.5,-506.5 231.5,-500.5 231.5,-494.5 231.5,-494.5 231.5,-397.5 231.5,-397.5 231.5,-391.5 237.5,-385.5 243.5,-385.5"/>
<text text-anchor="middle" x="297" y="-491.3" font-family="Times,serif" font-size="14.00">Comment</text>
<polyline fill="none" stroke="black" points="231.5,-483.5 362.5,-483.5 "/>
<text text-anchor="start" x="239.5" y="-468.3" font-family="Times,serif" font-size="14.00">id :integer</text>
<text text-anchor="start" x="239.5" y="-453.3" font-family="Times,serif" font-size="14.00">name :string</text>
<text text-anchor="start" x="239.5" y="-438.3" font-family="Times,serif" font-size="14.00">description :text</text>
<text text-anchor="start" x="239.5" y="-423.3" font-family="Times,serif" font-size="14.00">topic_id :integer</text>
<text text-anchor="start" x="239.5" y="-408.3" font-family="Times,serif" font-size="14.00">created_at :datetime</text>
<text text-anchor="start" x="239.5" y="-393.3" font-family="Times,serif" font-size="14.00">updated_at :datetime</text>
</g>
<!-- Topic&#45;&gt;Comment -->
<g id="edge1" class="edge"><title>Topic&#45;&gt;Comment</title>
<path fill="none" stroke="#bdf5fa" d="M297,-558.359C297,-544.605 297,-530.316 297,-516.743"/>
<ellipse fill="none" stroke="#bdf5fa" cx="297" cy="-562.753" rx="4" ry="4"/>
<polygon fill="#bdf5fa" stroke="#bdf5fa" points="297,-516.523 301.5,-506.523 297,-511.523 297,-506.523 297,-506.523 297,-506.523 297,-511.523 292.5,-506.523 297,-516.523 297,-516.523"/>
</g>
<!-- Check -->
<g id="node3" class="node"><title>Check</title>
<path fill="none" stroke="black" d="M250.5,-0.5C250.5,-0.5 357.5,-0.5 357.5,-0.5 363.5,-0.5 369.5,-6.5 369.5,-12.5 369.5,-12.5 369.5,-139.5 369.5,-139.5 369.5,-145.5 363.5,-151.5 357.5,-151.5 357.5,-151.5 250.5,-151.5 250.5,-151.5 244.5,-151.5 238.5,-145.5 238.5,-139.5 238.5,-139.5 238.5,-12.5 238.5,-12.5 238.5,-6.5 244.5,-0.5 250.5,-0.5"/>
<text text-anchor="middle" x="304" y="-136.3" font-family="Times,serif" font-size="14.00">Check</text>
<polyline fill="none" stroke="black" points="238.5,-128.5 369.5,-128.5 "/>
<text text-anchor="start" x="246.5" y="-113.3" font-family="Times,serif" font-size="14.00">id :integer</text>
<text text-anchor="start" x="246.5" y="-98.3" font-family="Times,serif" font-size="14.00">weather_id :integer</text>
<text text-anchor="start" x="246.5" y="-83.3" font-family="Times,serif" font-size="14.00">created_at :datetime</text>
<text text-anchor="start" x="246.5" y="-68.3" font-family="Times,serif" font-size="14.00">updated_at :datetime</text>
<text text-anchor="start" x="246.5" y="-53.3" font-family="Times,serif" font-size="14.00">kiroku_id :integer</text>
<text text-anchor="start" x="246.5" y="-38.3" font-family="Times,serif" font-size="14.00">exterior_id :integer</text>
<text text-anchor="start" x="246.5" y="-23.3" font-family="Times,serif" font-size="14.00">tone_id :integer</text>
<text text-anchor="start" x="246.5" y="-8.3" font-family="Times,serif" font-size="14.00">stain_id :integer</text>
</g>
<!-- Result -->
<g id="node4" class="node"><title>Result</title>
<path fill="none" stroke="black" d="M548.5,-589.5C548.5,-589.5 655.5,-589.5 655.5,-589.5 661.5,-589.5 667.5,-595.5 667.5,-601.5 667.5,-601.5 667.5,-668.5 667.5,-668.5 667.5,-674.5 661.5,-680.5 655.5,-680.5 655.5,-680.5 548.5,-680.5 548.5,-680.5 542.5,-680.5 536.5,-674.5 536.5,-668.5 536.5,-668.5 536.5,-601.5 536.5,-601.5 536.5,-595.5 542.5,-589.5 548.5,-589.5"/>
<text text-anchor="middle" x="602" y="-665.3" font-family="Times,serif" font-size="14.00">Result</text>
<polyline fill="none" stroke="black" points="536.5,-657.5 667.5,-657.5 "/>
<text text-anchor="start" x="544.5" y="-642.3" font-family="Times,serif" font-size="14.00">id :integer</text>
<text text-anchor="start" x="544.5" y="-627.3" font-family="Times,serif" font-size="14.00">name :string</text>
<text text-anchor="start" x="544.5" y="-612.3" font-family="Times,serif" font-size="14.00">created_at :datetime</text>
<text text-anchor="start" x="544.5" y="-597.3" font-family="Times,serif" font-size="14.00">updated_at :datetime</text>
</g>
<!-- Status -->
<g id="node5" class="node"><title>Status</title>
<path fill="none" stroke="black" d="M697.5,-589.5C697.5,-589.5 804.5,-589.5 804.5,-589.5 810.5,-589.5 816.5,-595.5 816.5,-601.5 816.5,-601.5 816.5,-668.5 816.5,-668.5 816.5,-674.5 810.5,-680.5 804.5,-680.5 804.5,-680.5 697.5,-680.5 697.5,-680.5 691.5,-680.5 685.5,-674.5 685.5,-668.5 685.5,-668.5 685.5,-601.5 685.5,-601.5 685.5,-595.5 691.5,-589.5 697.5,-589.5"/>
<text text-anchor="middle" x="751" y="-665.3" font-family="Times,serif" font-size="14.00">Status</text>
<polyline fill="none" stroke="black" points="685.5,-657.5 816.5,-657.5 "/>
<text text-anchor="start" x="693.5" y="-642.3" font-family="Times,serif" font-size="14.00">id :integer</text>
<text text-anchor="start" x="693.5" y="-627.3" font-family="Times,serif" font-size="14.00">name :string</text>
<text text-anchor="start" x="693.5" y="-612.3" font-family="Times,serif" font-size="14.00">created_at :datetime</text>
<text text-anchor="start" x="693.5" y="-597.3" font-family="Times,serif" font-size="14.00">updated_at :datetime</text>
</g>
<!-- Infomsg -->
<g id="node6" class="node"><title>Infomsg</title>
<path fill="none" stroke="black" d="M846.5,-574.5C846.5,-574.5 953.5,-574.5 953.5,-574.5 959.5,-574.5 965.5,-580.5 965.5,-586.5 965.5,-586.5 965.5,-683.5 965.5,-683.5 965.5,-689.5 959.5,-695.5 953.5,-695.5 953.5,-695.5 846.5,-695.5 846.5,-695.5 840.5,-695.5 834.5,-689.5 834.5,-683.5 834.5,-683.5 834.5,-586.5 834.5,-586.5 834.5,-580.5 840.5,-574.5 846.5,-574.5"/>
<text text-anchor="middle" x="900" y="-680.3" font-family="Times,serif" font-size="14.00">Infomsg</text>
<polyline fill="none" stroke="black" points="834.5,-672.5 965.5,-672.5 "/>
<text text-anchor="start" x="842.5" y="-657.3" font-family="Times,serif" font-size="14.00">id :integer</text>
<text text-anchor="start" x="842.5" y="-642.3" font-family="Times,serif" font-size="14.00">effective_date :date</text>
<text text-anchor="start" x="842.5" y="-627.3" font-family="Times,serif" font-size="14.00">title :string</text>
<text text-anchor="start" x="842.5" y="-612.3" font-family="Times,serif" font-size="14.00">description :text</text>
<text text-anchor="start" x="842.5" y="-597.3" font-family="Times,serif" font-size="14.00">created_at :datetime</text>
<text text-anchor="start" x="842.5" y="-582.3" font-family="Times,serif" font-size="14.00">updated_at :datetime</text>
</g>
<!-- Weather -->
<g id="node7" class="node"><title>Weather</title>
<path fill="none" stroke="black" d="M995.5,-589.5C995.5,-589.5 1102.5,-589.5 1102.5,-589.5 1108.5,-589.5 1114.5,-595.5 1114.5,-601.5 1114.5,-601.5 1114.5,-668.5 1114.5,-668.5 1114.5,-674.5 1108.5,-680.5 1102.5,-680.5 1102.5,-680.5 995.5,-680.5 995.5,-680.5 989.5,-680.5 983.5,-674.5 983.5,-668.5 983.5,-668.5 983.5,-601.5 983.5,-601.5 983.5,-595.5 989.5,-589.5 995.5,-589.5"/>
<text text-anchor="middle" x="1049" y="-665.3" font-family="Times,serif" font-size="14.00">Weather</text>
<polyline fill="none" stroke="black" points="983.5,-657.5 1114.5,-657.5 "/>
<text text-anchor="start" x="991.5" y="-642.3" font-family="Times,serif" font-size="14.00">id :integer</text>
<text text-anchor="start" x="991.5" y="-627.3" font-family="Times,serif" font-size="14.00">name :string</text>
<text text-anchor="start" x="991.5" y="-612.3" font-family="Times,serif" font-size="14.00">created_at :datetime</text>
<text text-anchor="start" x="991.5" y="-597.3" font-family="Times,serif" font-size="14.00">updated_at :datetime</text>
</g>
<!-- Division -->
<g id="node8" class="node"><title>Division</title>
<path fill="none" stroke="black" d="M1144.5,-582C1144.5,-582 1251.5,-582 1251.5,-582 1257.5,-582 1263.5,-588 1263.5,-594 1263.5,-594 1263.5,-676 1263.5,-676 1263.5,-682 1257.5,-688 1251.5,-688 1251.5,-688 1144.5,-688 1144.5,-688 1138.5,-688 1132.5,-682 1132.5,-676 1132.5,-676 1132.5,-594 1132.5,-594 1132.5,-588 1138.5,-582 1144.5,-582"/>
<text text-anchor="middle" x="1198" y="-672.8" font-family="Times,serif" font-size="14.00">Division</text>
<polyline fill="none" stroke="black" points="1132.5,-665 1263.5,-665 "/>
<text text-anchor="start" x="1140.5" y="-649.8" font-family="Times,serif" font-size="14.00">id :integer</text>
<text text-anchor="start" x="1140.5" y="-634.8" font-family="Times,serif" font-size="14.00">code :string</text>
<text text-anchor="start" x="1140.5" y="-619.8" font-family="Times,serif" font-size="14.00">name :string</text>
<text text-anchor="start" x="1140.5" y="-604.8" font-family="Times,serif" font-size="14.00">created_at :datetime</text>
<text text-anchor="start" x="1140.5" y="-589.8" font-family="Times,serif" font-size="14.00">updated_at :datetime</text>
</g>
<!-- Worker -->
<g id="node9" class="node"><title>Worker</title>
<path fill="none" stroke="black" d="M1293.5,-582C1293.5,-582 1400.5,-582 1400.5,-582 1406.5,-582 1412.5,-588 1412.5,-594 1412.5,-594 1412.5,-676 1412.5,-676 1412.5,-682 1406.5,-688 1400.5,-688 1400.5,-688 1293.5,-688 1293.5,-688 1287.5,-688 1281.5,-682 1281.5,-676 1281.5,-676 1281.5,-594 1281.5,-594 1281.5,-588 1287.5,-582 1293.5,-582"/>
<text text-anchor="middle" x="1347" y="-672.8" font-family="Times,serif" font-size="14.00">Worker</text>
<polyline fill="none" stroke="black" points="1281.5,-665 1412.5,-665 "/>
<text text-anchor="start" x="1289.5" y="-649.8" font-family="Times,serif" font-size="14.00">id :integer</text>
<text text-anchor="start" x="1289.5" y="-634.8" font-family="Times,serif" font-size="14.00">name :string</text>
<text text-anchor="start" x="1289.5" y="-619.8" font-family="Times,serif" font-size="14.00">division_id :integer</text>
<text text-anchor="start" x="1289.5" y="-604.8" font-family="Times,serif" font-size="14.00">created_at :datetime</text>
<text text-anchor="start" x="1289.5" y="-589.8" font-family="Times,serif" font-size="14.00">updated_at :datetime</text>
</g>
<!-- Note -->
<g id="node10" class="node"><title>Note</title>
<path fill="none" stroke="black" d="M399.5,-15.5C399.5,-15.5 506.5,-15.5 506.5,-15.5 512.5,-15.5 518.5,-21.5 518.5,-27.5 518.5,-27.5 518.5,-124.5 518.5,-124.5 518.5,-130.5 512.5,-136.5 506.5,-136.5 506.5,-136.5 399.5,-136.5 399.5,-136.5 393.5,-136.5 387.5,-130.5 387.5,-124.5 387.5,-124.5 387.5,-27.5 387.5,-27.5 387.5,-21.5 393.5,-15.5 399.5,-15.5"/>
<text text-anchor="middle" x="453" y="-121.3" font-family="Times,serif" font-size="14.00">Note</text>
<polyline fill="none" stroke="black" points="387.5,-113.5 518.5,-113.5 "/>
<text text-anchor="start" x="395.5" y="-98.3" font-family="Times,serif" font-size="14.00">id :integer</text>
<text text-anchor="start" x="395.5" y="-83.3" font-family="Times,serif" font-size="14.00">kiroku_id :integer</text>
<text text-anchor="start" x="395.5" y="-68.3" font-family="Times,serif" font-size="14.00">memo :text</text>
<text text-anchor="start" x="395.5" y="-53.3" font-family="Times,serif" font-size="14.00">picture :string</text>
<text text-anchor="start" x="395.5" y="-38.3" font-family="Times,serif" font-size="14.00">created_at :datetime</text>
<text text-anchor="start" x="395.5" y="-23.3" font-family="Times,serif" font-size="14.00">updated_at :datetime</text>
</g>
<!-- Type -->
<g id="node11" class="node"><title>Type</title>
<path fill="none" stroke="black" d="M1442.5,-589.5C1442.5,-589.5 1549.5,-589.5 1549.5,-589.5 1555.5,-589.5 1561.5,-595.5 1561.5,-601.5 1561.5,-601.5 1561.5,-668.5 1561.5,-668.5 1561.5,-674.5 1555.5,-680.5 1549.5,-680.5 1549.5,-680.5 1442.5,-680.5 1442.5,-680.5 1436.5,-680.5 1430.5,-674.5 1430.5,-668.5 1430.5,-668.5 1430.5,-601.5 1430.5,-601.5 1430.5,-595.5 1436.5,-589.5 1442.5,-589.5"/>
<text text-anchor="middle" x="1496" y="-665.3" font-family="Times,serif" font-size="14.00">Type</text>
<polyline fill="none" stroke="black" points="1430.5,-657.5 1561.5,-657.5 "/>
<text text-anchor="start" x="1438.5" y="-642.3" font-family="Times,serif" font-size="14.00">id :integer</text>
<text text-anchor="start" x="1438.5" y="-627.3" font-family="Times,serif" font-size="14.00">name :string</text>
<text text-anchor="start" x="1438.5" y="-612.3" font-family="Times,serif" font-size="14.00">created_at :datetime</text>
<text text-anchor="start" x="1438.5" y="-597.3" font-family="Times,serif" font-size="14.00">updated_at :datetime</text>
</g>
<!-- Place -->
<g id="node13" class="node"><title>Place</title>
<path fill="none" stroke="black" d="M1591.5,-582C1591.5,-582 1698.5,-582 1698.5,-582 1704.5,-582 1710.5,-588 1710.5,-594 1710.5,-594 1710.5,-676 1710.5,-676 1710.5,-682 1704.5,-688 1698.5,-688 1698.5,-688 1591.5,-688 1591.5,-688 1585.5,-688 1579.5,-682 1579.5,-676 1579.5,-676 1579.5,-594 1579.5,-594 1579.5,-588 1585.5,-582 1591.5,-582"/>
<text text-anchor="middle" x="1645" y="-672.8" font-family="Times,serif" font-size="14.00">Place</text>
<polyline fill="none" stroke="black" points="1579.5,-665 1710.5,-665 "/>
<text text-anchor="start" x="1587.5" y="-649.8" font-family="Times,serif" font-size="14.00">id :integer</text>
<text text-anchor="start" x="1587.5" y="-634.8" font-family="Times,serif" font-size="14.00">name :string</text>
<text text-anchor="start" x="1587.5" y="-619.8" font-family="Times,serif" font-size="14.00">address :text</text>
<text text-anchor="start" x="1587.5" y="-604.8" font-family="Times,serif" font-size="14.00">created_at :datetime</text>
<text text-anchor="start" x="1587.5" y="-589.8" font-family="Times,serif" font-size="14.00">updated_at :datetime</text>
</g>
<!-- Inspection -->
<g id="node14" class="node"><title>Inspection</title>
<path fill="none" stroke="black" d="M393,-363C393,-363 513,-363 513,-363 519,-363 525,-369 525,-375 525,-375 525,-517 525,-517 525,-523 519,-529 513,-529 513,-529 393,-529 393,-529 387,-529 381,-523 381,-517 381,-517 381,-375 381,-375 381,-369 387,-363 393,-363"/>
<text text-anchor="middle" x="453" y="-513.8" font-family="Times,serif" font-size="14.00">Inspection</text>
<polyline fill="none" stroke="black" points="381,-506 525,-506 "/>
<text text-anchor="start" x="389" y="-490.8" font-family="Times,serif" font-size="14.00">id :integer</text>
<text text-anchor="start" x="389" y="-475.8" font-family="Times,serif" font-size="14.00">targetyearmonth :string</text>
<text text-anchor="start" x="389" y="-460.8" font-family="Times,serif" font-size="14.00">equipment_id :integer</text>
<text text-anchor="start" x="389" y="-445.8" font-family="Times,serif" font-size="14.00">status_id :integer</text>
<text text-anchor="start" x="389" y="-430.8" font-family="Times,serif" font-size="14.00">worker_id :integer</text>
<text text-anchor="start" x="389" y="-415.8" font-family="Times,serif" font-size="14.00">result_id :integer</text>
<text text-anchor="start" x="389" y="-400.8" font-family="Times,serif" font-size="14.00">processingdate :date</text>
<text text-anchor="start" x="389" y="-385.8" font-family="Times,serif" font-size="14.00">created_at :datetime</text>
<text text-anchor="start" x="389" y="-370.8" font-family="Times,serif" font-size="14.00">updated_at :datetime</text>
</g>
<!-- Kiroku -->
<g id="node16" class="node"><title>Kiroku</title>
<path fill="none" stroke="black" d="M398,-189C398,-189 508,-189 508,-189 514,-189 520,-195 520,-201 520,-201 520,-313 520,-313 520,-319 514,-325 508,-325 508,-325 398,-325 398,-325 392,-325 386,-319 386,-313 386,-313 386,-201 386,-201 386,-195 392,-189 398,-189"/>
<text text-anchor="middle" x="453" y="-309.8" font-family="Times,serif" font-size="14.00">Kiroku</text>
<polyline fill="none" stroke="black" points="386,-302 520,-302 "/>
<text text-anchor="start" x="394" y="-286.8" font-family="Times,serif" font-size="14.00">id :integer</text>
<text text-anchor="start" x="394" y="-271.8" font-family="Times,serif" font-size="14.00">inspection_id :integer</text>
<text text-anchor="start" x="394" y="-256.8" font-family="Times,serif" font-size="14.00">worker_id :integer</text>
<text text-anchor="start" x="394" y="-241.8" font-family="Times,serif" font-size="14.00">latitude :decimal</text>
<text text-anchor="start" x="394" y="-226.8" font-family="Times,serif" font-size="14.00">longitude :decimal</text>
<text text-anchor="start" x="394" y="-211.8" font-family="Times,serif" font-size="14.00">created_at :datetime</text>
<text text-anchor="start" x="394" y="-196.8" font-family="Times,serif" font-size="14.00">updated_at :datetime</text>
</g>
<!-- Inspection&#45;&gt;Kiroku -->
<g id="edge2" class="edge"><title>Inspection&#45;&gt;Kiroku</title>
<path fill="none" stroke="#1dda7b" d="M453,-354.939C453,-348.343 453,-341.725 453,-335.215"/>
<ellipse fill="none" stroke="#1dda7b" cx="453" cy="-358.979" rx="4" ry="4"/>
<polygon fill="#1dda7b" stroke="#1dda7b" points="453,-335.093 457.5,-325.093 453,-330.093 453,-325.093 453,-325.093 453,-325.093 453,-330.093 448.5,-325.093 453,-335.093 453,-335.093"/>
</g>
<!-- Equipment -->
<g id="node15" class="node"><title>Equipment</title>
<path fill="none" stroke="black" d="M399.5,-567C399.5,-567 506.5,-567 506.5,-567 512.5,-567 518.5,-573 518.5,-579 518.5,-579 518.5,-691 518.5,-691 518.5,-697 512.5,-703 506.5,-703 506.5,-703 399.5,-703 399.5,-703 393.5,-703 387.5,-697 387.5,-691 387.5,-691 387.5,-579 387.5,-579 387.5,-573 393.5,-567 399.5,-567"/>
<text text-anchor="middle" x="453" y="-687.8" font-family="Times,serif" font-size="14.00">Equipment</text>
<polyline fill="none" stroke="black" points="387.5,-680 518.5,-680 "/>
<text text-anchor="start" x="395.5" y="-664.8" font-family="Times,serif" font-size="14.00">id :integer</text>
<text text-anchor="start" x="395.5" y="-649.8" font-family="Times,serif" font-size="14.00">name :string</text>
<text text-anchor="start" x="395.5" y="-634.8" font-family="Times,serif" font-size="14.00">type_id :integer</text>
<text text-anchor="start" x="395.5" y="-619.8" font-family="Times,serif" font-size="14.00">place_id :integer</text>
<text text-anchor="start" x="395.5" y="-604.8" font-family="Times,serif" font-size="14.00">division_id :integer</text>
<text text-anchor="start" x="395.5" y="-589.8" font-family="Times,serif" font-size="14.00">created_at :datetime</text>
<text text-anchor="start" x="395.5" y="-574.8" font-family="Times,serif" font-size="14.00">updated_at :datetime</text>
</g>
<!-- Equipment&#45;&gt;Inspection -->
<g id="edge3" class="edge"><title>Equipment&#45;&gt;Inspection</title>
<path fill="none" stroke="#dca1cd" d="M453,-558.699C453,-552.35 453,-545.884 453,-539.426"/>
<ellipse fill="none" stroke="#dca1cd" cx="453" cy="-562.753" rx="4" ry="4"/>
<polygon fill="#dca1cd" stroke="#dca1cd" points="453,-539.299 457.5,-529.299 453,-534.299 453,-529.299 453,-529.299 453,-529.299 453,-534.299 448.5,-529.299 453,-539.299 453,-539.299"/>
</g>
<!-- Kiroku&#45;&gt;Check -->
<g id="edge4" class="edge"><title>Kiroku&#45;&gt;Check</title>
<path fill="none" stroke="#83d33c" d="M391.861,-182.551C385.118,-174.451 378.225,-166.169 371.411,-157.984"/>
<ellipse fill="none" stroke="#83d33c" cx="394.535" cy="-185.763" rx="4.00002" ry="4.00002"/>
<ellipse fill="#83d33c" stroke="#83d33c" cx="368.779" cy="-154.822" rx="4.00002" ry="4.00002"/>
</g>
<!-- Kiroku&#45;&gt;Note -->
<g id="edge6" class="edge"><title>Kiroku&#45;&gt;Note</title>
<path fill="none" stroke="#1960d6" d="M453,-180.718C453,-168.748 453,-156.429 453,-144.649"/>
<ellipse fill="none" stroke="#1960d6" cx="453" cy="-184.838" rx="4" ry="4"/>
<ellipse fill="#1960d6" stroke="#1960d6" cx="453" cy="-140.59" rx="4" ry="4"/>
</g>
<!-- Measurement -->
<g id="node17" class="node"><title>Measurement</title>
<path fill="none" stroke="black" d="M548.5,-8C548.5,-8 655.5,-8 655.5,-8 661.5,-8 667.5,-14 667.5,-20 667.5,-20 667.5,-132 667.5,-132 667.5,-138 661.5,-144 655.5,-144 655.5,-144 548.5,-144 548.5,-144 542.5,-144 536.5,-138 536.5,-132 536.5,-132 536.5,-20 536.5,-20 536.5,-14 542.5,-8 548.5,-8"/>
<text text-anchor="middle" x="602" y="-128.8" font-family="Times,serif" font-size="14.00">Measurement</text>
<polyline fill="none" stroke="black" points="536.5,-121 667.5,-121 "/>
<text text-anchor="start" x="544.5" y="-105.8" font-family="Times,serif" font-size="14.00">id :integer</text>
<text text-anchor="start" x="544.5" y="-90.8" font-family="Times,serif" font-size="14.00">metercount :integer</text>
<text text-anchor="start" x="544.5" y="-75.8" font-family="Times,serif" font-size="14.00">testervalue :decimal</text>
<text text-anchor="start" x="544.5" y="-60.8" font-family="Times,serif" font-size="14.00">point :integer</text>
<text text-anchor="start" x="544.5" y="-45.8" font-family="Times,serif" font-size="14.00">created_at :datetime</text>
<text text-anchor="start" x="544.5" y="-30.8" font-family="Times,serif" font-size="14.00">updated_at :datetime</text>
<text text-anchor="start" x="544.5" y="-15.8" font-family="Times,serif" font-size="14.00">kiroku_id :integer</text>
</g>
<!-- Kiroku&#45;&gt;Measurement -->
<g id="edge5" class="edge"><title>Kiroku&#45;&gt;Measurement</title>
<path fill="none" stroke="#300556" d="M514.065,-182.64C522.907,-172.017 532.011,-161.081 540.855,-150.456"/>
<ellipse fill="none" stroke="#300556" cx="511.465" cy="-185.763" rx="4.00002" ry="4.00002"/>
<ellipse fill="#300556" stroke="#300556" cx="543.469" cy="-147.315" rx="4.00002" ry="4.00002"/>
</g>
<!-- Checkresult -->
<g id="node18" class="node"><title>Checkresult</title>
<path fill="none" stroke="black" d="M1740.5,-589.5C1740.5,-589.5 1847.5,-589.5 1847.5,-589.5 1853.5,-589.5 1859.5,-595.5 1859.5,-601.5 1859.5,-601.5 1859.5,-668.5 1859.5,-668.5 1859.5,-674.5 1853.5,-680.5 1847.5,-680.5 1847.5,-680.5 1740.5,-680.5 1740.5,-680.5 1734.5,-680.5 1728.5,-674.5 1728.5,-668.5 1728.5,-668.5 1728.5,-601.5 1728.5,-601.5 1728.5,-595.5 1734.5,-589.5 1740.5,-589.5"/>
<text text-anchor="middle" x="1794" y="-665.3" font-family="Times,serif" font-size="14.00">Checkresult</text>
<polyline fill="none" stroke="black" points="1728.5,-657.5 1859.5,-657.5 "/>
<text text-anchor="start" x="1736.5" y="-642.3" font-family="Times,serif" font-size="14.00">id :integer</text>
<text text-anchor="start" x="1736.5" y="-627.3" font-family="Times,serif" font-size="14.00">name :string</text>
<text text-anchor="start" x="1736.5" y="-612.3" font-family="Times,serif" font-size="14.00">created_at :datetime</text>
<text text-anchor="start" x="1736.5" y="-597.3" font-family="Times,serif" font-size="14.00">updated_at :datetime</text>
</g>
<!-- Flag -->
<g id="node19" class="node"><title>Flag</title>
<path fill="none" stroke="black" d="M1889.5,-589.5C1889.5,-589.5 1996.5,-589.5 1996.5,-589.5 2002.5,-589.5 2008.5,-595.5 2008.5,-601.5 2008.5,-601.5 2008.5,-668.5 2008.5,-668.5 2008.5,-674.5 2002.5,-680.5 1996.5,-680.5 1996.5,-680.5 1889.5,-680.5 1889.5,-680.5 1883.5,-680.5 1877.5,-674.5 1877.5,-668.5 1877.5,-668.5 1877.5,-601.5 1877.5,-601.5 1877.5,-595.5 1883.5,-589.5 1889.5,-589.5"/>
<text text-anchor="middle" x="1943" y="-665.3" font-family="Times,serif" font-size="14.00">Flag</text>
<polyline fill="none" stroke="black" points="1877.5,-657.5 2008.5,-657.5 "/>
<text text-anchor="start" x="1885.5" y="-642.3" font-family="Times,serif" font-size="14.00">id :integer</text>
<text text-anchor="start" x="1885.5" y="-627.3" font-family="Times,serif" font-size="14.00">name :string</text>
<text text-anchor="start" x="1885.5" y="-612.3" font-family="Times,serif" font-size="14.00">created_at :datetime</text>
<text text-anchor="start" x="1885.5" y="-597.3" font-family="Times,serif" font-size="14.00">updated_at :datetime</text>
</g>
</g>
</svg>
