<?xml version="1.0" encoding="UTF-8" standalone="no"?>
<!DOCTYPE svg PUBLIC "-//W3C//DTD SVG 1.1//EN"
 "http://www.w3.org/Graphics/SVG/1.1/DTD/svg11.dtd">
<!-- Generated by graphviz version 2.36.0 (20140111.2315)
 -->
<!-- Title: models_diagram Pages: 1 -->
<svg width="1341pt" height="302pt"
 viewBox="0.00 0.00 1341.00 302.00" xmlns="http://www.w3.org/2000/svg" xmlns:xlink="http://www.w3.org/1999/xlink">
<g id="graph0" class="graph" transform="scale(1 1) rotate(0) translate(4 298)">
<title>models_diagram</title>
<polygon fill="white" stroke="none" points="-4,4 -4,-298 1337,-298 1337,4 -4,4"/>
<!-- _diagram_info -->
<g id="node1" class="node"><title>_diagram_info</title>
<text text-anchor="start" x="7" y="-279.6" font-family="Times,serif" font-size="13.00">Models diagram</text>
<text text-anchor="start" x="7" y="-265.6" font-family="Times,serif" font-size="13.00">Date: Apr 01 2015 &#45; 06:49</text>
<text text-anchor="start" x="7" y="-251.6" font-family="Times,serif" font-size="13.00">Migration version: 20150316085153</text>
<text text-anchor="start" x="7" y="-237.6" font-family="Times,serif" font-size="13.00">Generated by RailRoady 1.3.0</text>
<text text-anchor="start" x="7" y="-223.6" font-family="Times,serif" font-size="13.00">http://railroady.prestonlee.com</text>
</g>
<!-- Topic -->
<g id="node2" class="node"><title>Topic</title>
<ellipse fill="none" stroke="black" cx="262" cy="-255" rx="31.2965" ry="18"/>
<text text-anchor="middle" x="262" y="-251.3" font-family="Times,serif" font-size="14.00">Topic</text>
</g>
<!-- Comment -->
<g id="node12" class="node"><title>Comment</title>
<ellipse fill="none" stroke="black" cx="262" cy="-162" rx="46.2191" ry="18"/>
<text text-anchor="middle" x="262" y="-158.3" font-family="Times,serif" font-size="14.00">Comment</text>
</g>
<!-- Topic&#45;&gt;Comment -->
<g id="edge1" class="edge"><title>Topic&#45;&gt;Comment</title>
<path fill="none" stroke="#15b4ee" d="M262,-228.729C262,-216.725 262,-202.362 262,-190.129"/>
<ellipse fill="none" stroke="#15b4ee" cx="262" cy="-232.884" rx="4" ry="4"/>
<polygon fill="#15b4ee" stroke="#15b4ee" points="262,-190.04 266.5,-180.04 262,-185.04 262,-180.04 262,-180.04 262,-180.04 262,-185.04 257.5,-180.04 262,-190.04 262,-190.04"/>
</g>
<!-- Check -->
<g id="node3" class="node"><title>Check</title>
<ellipse fill="none" stroke="black" cx="295" cy="-18" rx="33.2209" ry="18"/>
<text text-anchor="middle" x="295" y="-14.3" font-family="Times,serif" font-size="14.00">Check</text>
</g>
<!-- Result -->
<g id="node4" class="node"><title>Result</title>
<ellipse fill="none" stroke="black" cx="475" cy="-255" rx="33.2209" ry="18"/>
<text text-anchor="middle" x="475" y="-251.3" font-family="Times,serif" font-size="14.00">Result</text>
</g>
<!-- Status -->
<g id="node5" class="node"><title>Status</title>
<ellipse fill="none" stroke="black" cx="559" cy="-255" rx="32.2457" ry="18"/>
<text text-anchor="middle" x="559" y="-251.3" font-family="Times,serif" font-size="14.00">Status</text>
</g>
<!-- Infomsg -->
<g id="node6" class="node"><title>Infomsg</title>
<ellipse fill="none" stroke="black" cx="650" cy="-255" rx="39.9464" ry="18"/>
<text text-anchor="middle" x="650" y="-251.3" font-family="Times,serif" font-size="14.00">Infomsg</text>
</g>
<!-- Weather -->
<g id="node7" class="node"><title>Weather</title>
<ellipse fill="none" stroke="black" cx="749" cy="-255" rx="40.4202" ry="18"/>
<text text-anchor="middle" x="749" y="-251.3" font-family="Times,serif" font-size="14.00">Weather</text>
</g>
<!-- Division -->
<g id="node8" class="node"><title>Division</title>
<ellipse fill="none" stroke="black" cx="849" cy="-255" rx="40.4202" ry="18"/>
<text text-anchor="middle" x="849" y="-251.3" font-family="Times,serif" font-size="14.00">Division</text>
</g>
<!-- Worker -->
<g id="node9" class="node"><title>Worker</title>
<ellipse fill="none" stroke="black" cx="946" cy="-255" rx="38.0212" ry="18"/>
<text text-anchor="middle" x="946" y="-251.3" font-family="Times,serif" font-size="14.00">Worker</text>
</g>
<!-- Note -->
<g id="node10" class="node"><title>Note</title>
<ellipse fill="none" stroke="black" cx="374" cy="-18" rx="27.4223" ry="18"/>
<text text-anchor="middle" x="374" y="-14.3" font-family="Times,serif" font-size="14.00">Note</text>
</g>
<!-- Type -->
<g id="node11" class="node"><title>Type</title>
<ellipse fill="none" stroke="black" cx="1031" cy="-255" rx="28.3955" ry="18"/>
<text text-anchor="middle" x="1031" y="-251.3" font-family="Times,serif" font-size="14.00">Type</text>
</g>
<!-- Place -->
<g id="node13" class="node"><title>Place</title>
<ellipse fill="none" stroke="black" cx="1107" cy="-255" rx="29.3479" ry="18"/>
<text text-anchor="middle" x="1107" y="-251.3" font-family="Times,serif" font-size="14.00">Place</text>
</g>
<!-- Inspection -->
<g id="node14" class="node"><title>Inspection</title>
<ellipse fill="none" stroke="black" cx="374" cy="-162" rx="47.169" ry="18"/>
<text text-anchor="middle" x="374" y="-158.3" font-family="Times,serif" font-size="14.00">Inspection</text>
</g>
<!-- Kiroku -->
<g id="node16" class="node"><title>Kiroku</title>
<ellipse fill="none" stroke="black" cx="374" cy="-90" rx="35.6194" ry="18"/>
<text text-anchor="middle" x="374" y="-86.3" font-family="Times,serif" font-size="14.00">Kiroku</text>
</g>
<!-- Inspection&#45;&gt;Kiroku -->
<g id="edge2" class="edge"><title>Inspection&#45;&gt;Kiroku</title>
<path fill="none" stroke="#799381" d="M374,-135.64C374,-130.063 374,-124.132 374,-118.476"/>
<ellipse fill="none" stroke="#799381" cx="374" cy="-139.697" rx="4" ry="4"/>
<polygon fill="#799381" stroke="#799381" points="374,-118.104 378.5,-108.104 374,-113.104 374,-108.104 374,-108.104 374,-108.104 374,-113.104 369.5,-108.104 374,-118.104 374,-118.104"/>
</g>
<!-- Equipment -->
<g id="node15" class="node"><title>Equipment</title>
<ellipse fill="none" stroke="black" cx="374" cy="-255" rx="50.0684" ry="18"/>
<text text-anchor="middle" x="374" y="-251.3" font-family="Times,serif" font-size="14.00">Equipment</text>
</g>
<!-- Equipment&#45;&gt;Inspection -->
<g id="edge3" class="edge"><title>Equipment&#45;&gt;Inspection</title>
<path fill="none" stroke="#73feb7" d="M374,-228.729C374,-216.725 374,-202.362 374,-190.129"/>
<ellipse fill="none" stroke="#73feb7" cx="374" cy="-232.884" rx="4" ry="4"/>
<polygon fill="#73feb7" stroke="#73feb7" points="374,-190.04 378.5,-180.04 374,-185.04 374,-180.04 374,-180.04 374,-180.04 374,-185.04 369.5,-180.04 374,-190.04 374,-190.04"/>
</g>
<!-- Kiroku&#45;&gt;Check -->
<g id="edge4" class="edge"><title>Kiroku&#45;&gt;Check</title>
<path fill="none" stroke="#8a4f9f" d="M350.571,-68.2398C340.183,-59.036 328.009,-48.2483 317.707,-39.1199"/>
<ellipse fill="none" stroke="#8a4f9f" cx="353.864" cy="-71.1583" rx="4.00002" ry="4.00002"/>
<ellipse fill="#8a4f9f" stroke="#8a4f9f" cx="314.561" cy="-36.3324" rx="4.00002" ry="4.00002"/>
</g>
<!-- Kiroku&#45;&gt;Note -->
<g id="edge6" class="edge"><title>Kiroku&#45;&gt;Note</title>
<path fill="none" stroke="#cc1bce" d="M374,-63.6398C374,-57.348 374,-50.6053 374,-44.3156"/>
<ellipse fill="none" stroke="#cc1bce" cx="374" cy="-67.6966" rx="4" ry="4"/>
<ellipse fill="#cc1bce" stroke="#cc1bce" cx="374" cy="-40.1043" rx="4" ry="4"/>
</g>
<!-- Measurement -->
<g id="node17" class="node"><title>Measurement</title>
<ellipse fill="none" stroke="black" cx="480" cy="-18" rx="59.1941" ry="18"/>
<text text-anchor="middle" x="480" y="-14.3" font-family="Times,serif" font-size="14.00">Measurement</text>
</g>
<!-- Kiroku&#45;&gt;Measurement -->
<g id="edge5" class="edge"><title>Kiroku&#45;&gt;Measurement</title>
<path fill="none" stroke="#fb6cfd" d="M401.668,-70.7286C416.411,-60.9929 434.572,-48.9993 449.695,-39.0127"/>
<ellipse fill="none" stroke="#fb6cfd" cx="398.027" cy="-73.1329" rx="4.00002" ry="4.00002"/>
<ellipse fill="#fb6cfd" stroke="#fb6cfd" cx="453.068" cy="-36.785" rx="4.00002" ry="4.00002"/>
</g>
<!-- Checkresult -->
<g id="node18" class="node"><title>Checkresult</title>
<ellipse fill="none" stroke="black" cx="1208" cy="-255" rx="52.4675" ry="18"/>
<text text-anchor="middle" x="1208" y="-251.3" font-family="Times,serif" font-size="14.00">Checkresult</text>
</g>
<!-- Flag -->
<g id="node19" class="node"><title>Flag</title>
<ellipse fill="none" stroke="black" cx="1306" cy="-255" rx="27" ry="18"/>
<text text-anchor="middle" x="1306" y="-251.3" font-family="Times,serif" font-size="14.00">Flag</text>
</g>
</g>
</svg>
